<!-- icon666.com - MILLIONS vector ICONS FREE --><svg fill="#FFFFFF" id="Capa_1" enable-background="new 0 0 512.724 512.724" viewBox="0 0 512.724 512.724" xmlns="http://www.w3.org/2000/svg"><g><g><circle cx="337.198" cy="138.943" r="7.402"></circle><path d="m327.731 466.318h-66.785l-17.236-156.757c-2.279-20.816-19.791-36.513-40.734-36.513h-9.271v-69.564c0-4.142-3.357-7.5-7.5-7.5s-7.5 3.358-7.5 7.5v69.564h-47.74v-77.418l125.496-45.757c7.764-2.831 12.125-10.879 10.612-18.747l22.762-8.294 22.076 59.934c-4.77 2.791-8.574 6.956-10.94 12.079-3.053 6.614-3.348 14.021-.83 20.856l5.634 15.292c2.798 7.693 11.484 11.522 18.909 8.729l38.908-14.331 12.861 33.654c1.475 3.908 5.914 5.798 9.684 4.329 3.869-1.479 5.807-5.814 4.328-9.683l-12.796-33.485 34.426-12.68c7.619-2.807 11.535-11.289 8.729-18.909l-5.633-15.292c-2.519-6.836-7.548-12.282-14.162-15.335-5.122-2.364-10.719-3.066-16.16-2.097l-48.65-132.077c-3.357-9.115-10.063-16.376-18.883-20.448-8.818-4.071-18.694-4.465-27.81-1.107l-4.711 1.735c-12.134 4.47-20.455 14.771-22.982 26.569l-106.335 38.391c-12.806 4.623-21.41 16.877-21.41 30.492v9.238l-19.586 7.141c-33.15 12.087-50.286 48.891-38.199 82.041 3.127 8.694 12.92 13.048 21.312 9.923l18.351-6.691v71.948h-8.619c-20.938 0-38.454 15.695-40.745 36.51l-3.945 35.887c-.453 4.118 2.519 7.822 6.636 8.275 4.119.461 7.822-2.519 8.274-6.635l3.945-35.886c1.453-13.198 12.56-23.15 25.835-23.15h95.63c13.277 0 24.379 9.951 25.824 23.149l17.056 155.121h-75.127v-26.35c0-4.767-1.833-9.273-5.162-12.689l-46.211-47.401c-3.4-3.488-8.145-5.489-13.017-5.489h-61.794c-10.023 0-18.179 8.155-18.179 18.179v73.75h-17.462c-4.143 0-7.5 3.358-7.5 7.5s3.357 7.5 7.5 7.5h318.826c4.143 0 7.5-3.358 7.5-7.5s-3.357-7.501-7.5-7.501zm-65.58-349.364-7.762-21.288 22.428-8.175 7.833 21.265zm127.455 53.518c1.752 0 3.498.38 5.137 1.136 2.977 1.374 5.239 3.825 6.372 6.901l5.539 15.036-86.898 32.008-5.538-15.036c-1.134-3.076-1.001-6.409.373-9.385s3.825-5.239 6.9-6.373l63.867-23.524c1.383-.51 2.816-.763 4.248-.763zm-99.606-152.401 4.71-1.735c2.408-.887 4.905-1.328 7.396-1.328 3.05 0 6.091.662 8.943 1.978 5.181 2.392 9.121 6.658 11.093 12.014l48.5 131.669-22.403 8.252-22.403 8.252-48.499-131.669c-4.072-11.055 1.61-23.361 12.663-27.433zm-140.913 81.376c0-7.315 4.623-13.899 11.504-16.383l101.405-36.611c.335 1.419 9.636 26.963 9.636 26.963l-22.595 8.235c-3.724-6.992-12.768-10.385-20.191-7.516l-79.759 29.081zm-56.611 94.251c-1.037.252-1.609-.014-2.082-.969-9.253-25.379 3.866-53.556 29.246-62.81l14.447-5.268v29.034c0 4.142 3.357 7.5 7.5 7.5s7.5-3.358 7.5-7.5v-34.503l84.897-30.955c.897-.264 1.663.017 2.08.969l16.227 44.503c.306.841-.129 1.774-.97 2.081zm-51.108 198.87c0-1.753 1.426-3.179 3.179-3.179h61.794c.852 0 1.682.35 2.276.959l46.21 47.4c.582.598.903 1.386.903 2.22v26.35h-99.635-14.727z"></path><path d="m319.706 112.795c1.444 3.919 5.871 5.843 9.649 4.401 3.881-1.45 5.852-5.77 4.401-9.65l-18.951-50.734c-1.448-3.88-5.772-5.847-9.649-4.401-3.881 1.45-5.852 5.77-4.401 9.65z"></path><path d="m163.855 358.682h36.256c4.143 0 7.5-3.358 7.5-7.5s-3.357-7.5-7.5-7.5h-36.256c-4.143 0-7.5 3.358-7.5 7.5s3.357 7.5 7.5 7.5z"></path><path d="m163.855 389.389h36.256c4.143 0 7.5-3.358 7.5-7.5s-3.357-7.5-7.5-7.5h-36.256c-4.143 0-7.5 3.358-7.5 7.5s3.357 7.5 7.5 7.5z"></path><path d="m503.285 356.697c-5.106-3.733-11.491-4.771-17.518-2.853l-116.173 37.002c-8.167 2.601-13.654 10.106-13.654 18.678v83.597c0 10.809 8.794 19.603 19.603 19.603h116.174c10.809 0 19.603-8.793 19.603-19.603v-120.599c-.001-6.325-2.93-12.092-8.035-15.825zm-6.966 136.424c0 2.538-2.064 4.603-4.603 4.603h-116.174c-2.538 0-4.603-2.065-4.603-4.603v-83.597c0-2.012 1.288-3.774 3.206-4.385l116.174-37.002c3.179-.706 5.66.7 5.999 4.385v120.599z"></path><path d="m88.318 448.661c13.49 0 24.466-10.975 24.466-24.465s-10.976-24.465-24.466-24.465-24.465 10.975-24.465 24.465 10.975 24.465 24.465 24.465zm0-33.931c5.22 0 9.466 4.246 9.466 9.465s-4.246 9.465-9.466 9.465c-5.219 0-9.465-4.246-9.465-9.465s4.246-9.465 9.465-9.465z"></path><path d="m401.578 329.043c0-4.142-3.357-7.5-7.5-7.5-22.051 0-39.991-17.94-39.991-39.991 0-3.854.546-7.663 1.622-11.318 1.169-3.974-1.104-8.143-5.078-9.313-3.972-1.169-8.143 1.104-9.313 5.077-1.48 5.032-2.231 10.265-2.231 15.554 0 30.322 24.669 54.991 54.991 54.991 4.142 0 7.5-3.357 7.5-7.5z"></path><path d="m420.798 311.306c-3.08 2.769-3.333 7.511-.564 10.592 2.776 3.088 7.52 3.327 10.592.564 11.594-10.42 18.243-25.332 18.243-40.91 0-20.197-11.039-38.73-28.809-48.368-3.64-1.976-8.194-.625-10.168 3.017-1.975 3.641-.624 8.194 3.018 10.168 12.928 7.012 20.959 20.493 20.959 35.182 0 11.33-4.837 22.175-13.271 29.755z"></path><path d="m314.751 260.639c-4.092-.686-7.951 2.08-8.631 6.166-.806 4.84-1.215 9.802-1.215 14.748 0 37.376 23.592 71.065 58.704 83.829 3.79 1.408 8.202-.556 9.611-4.486 1.415-3.893-.594-8.196-4.486-9.611-29.206-10.617-48.829-38.64-48.829-69.731 0-4.122.34-8.254 1.012-12.283.681-4.087-2.08-7.951-6.166-8.632z"></path><path d="m435.542 220.043c20.479 13.836 32.707 36.831 32.707 61.509 0 6.877-.939 13.685-2.792 20.235-1.127 3.985 1.189 8.13 5.176 9.258 3.878 1.13 8.143-1.156 9.258-5.176 2.229-7.878 3.358-16.06 3.358-24.317 0-29.668-14.695-57.309-39.311-73.938-3.433-2.319-8.095-1.417-10.413 2.016-2.317 3.432-1.415 8.095 2.017 10.413z"></path></g></g></svg>