<!-- icon666.com - MILLIONS vector ICONS FREE --><svg fill="#FFFFFF" id="Layer_1_1_" enable-background="new 0 0 64 64" viewBox="0 0 64 64" xmlns="http://www.w3.org/2000/svg"><path d="m12.974 37.001c.635-.839 1.026-1.871 1.026-3.001 0-2.757-2.243-5-5-5s-5 2.243-5 5c0 1.13.391 2.162 1.026 3.001-2.221.003-4.026 1.81-4.026 4.031v8.968c0 .553.447 1 1 1h2v11c0 .553.447 1 1 1h8c.553 0 1-.447 1-1v-11h2c.553 0 1-.447 1-1v-8.968c0-2.221-1.805-4.028-4.026-4.031zm-3.974-6.001c1.654 0 3 1.346 3 3s-1.346 3-3 3-3-1.346-3-3 1.346-3 3-3zm6 18h-1v-8h-2v20h-2v-12h-2v12h-2v-20h-2v8h-1v-7.968c0-1.12.912-2.032 2.032-2.032h7.936c1.12 0 2.032.912 2.032 2.032z"></path><path d="m62 3h-5v-1c0-.553-.447-1-1-1h-14c-.553 0-1 .447-1 1v1h-5c-.553 0-1 .447-1 1v1c0 3.539 2.644 6.467 6.059 6.929.424 3.645 3.306 6.545 6.941 7.001v3.07h-4c-.409 0-.776.249-.929.629l-.548 1.371h-5.19l-3.733-2.8-1.2 1.6 1.6 1.2h-3c-3.577 0-6.532 2.7-6.946 6.167-1.189.399-2.054 1.511-2.054 2.833s.865 2.434 2.054 2.833c.414 3.467 3.369 6.167 6.946 6.167h9.667l3.733 2.8 1.199-1.6-1.599-1.2h8c2.757 0 5 2.243 5 5v.184c-1.161.414-2 1.514-2 2.816s.839 2.402 2 2.816v.184c0 2.757-2.243 5-5 5h-6.667l-3.733-2.8-1.2 1.6 1.6 1.2h-19.184c-.414-1.161-1.514-2-2.816-2-1.654 0-3 1.346-3 3s1.346 3 3 3c1.302 0 2.402-.839 2.816-2h19.184l-1.6 1.2 1.199 1.6 3.733-2.8h6.668c3.859 0 7-3.141 7-7v-.184c1.161-.414 2-1.514 2-2.816s-.839-2.402-2-2.816v-.184c0-3.859-3.141-7-7-7h-8l1.6-1.2-1.2-1.6-3.733 2.8h-9.667c-2.486 0-4.538-1.829-4.92-4.209 1.121-.435 1.92-1.518 1.92-2.791s-.799-2.356-1.92-2.791c.382-2.38 2.434-4.209 4.92-4.209h3l-1.6 1.2 1.199 1.6 3.733-2.8h4.39l-.652 1.629c-.123.308-.085.657.101.932.187.274.497.439.829.439h14c.332 0 .642-.165.828-.439s.224-.624.101-.932l-2-5c-.153-.38-.52-.629-.929-.629h-4v-3.069c3.635-.456 6.517-3.356 6.941-7.001 3.415-.463 6.059-3.391 6.059-6.93v-1c0-.553-.447-1-1-1zm-25 2h4v4.899c-2.279-.465-4-2.485-4-4.899zm-17 55c-.552 0-1-.448-1-1s.448-1 1-1 1 .448 1 1-.448 1-1 1zm38-9c-.552 0-1-.448-1-1s.448-1 1-1 1 .448 1 1-.448 1-1 1zm-33-19c.552 0 1 .448 1 1s-.448 1-1 1-1-.448-1-1 .448-1 1-1zm29.523-5h-11.046l1.2-3h8.646zm.477-16c0 3.309-2.691 6-6 6s-6-2.691-6-6v-8h12zm2-1.101v-4.899h4c0 2.414-1.721 4.434-4 4.899z"></path><path d="m45.932 10.442-.391 2.396c-.062.378.099.758.411.979.313.221.726.243 1.06.058l1.988-1.099 1.988 1.099c.151.084.318.125.484.125.202 0 .404-.062.576-.183.312-.221.473-.601.411-.979l-.391-2.396 1.647-1.688c.262-.269.352-.66.232-1.016s-.427-.614-.797-.671l-2.236-.342-1.01-2.15c-.164-.351-.516-.575-.904-.575s-.74.224-.905.575l-1.01 2.15-2.236.342c-.37.057-.678.315-.797.671s-.029.747.232 1.016zm1.983-1.82c.329-.05.612-.262.754-.563l.331-.705.331.705c.142.302.425.514.754.563l.84.128-.641.657c-.222.227-.322.546-.271.859l.141.862-.67-.37c-.15-.083-.316-.125-.483-.125s-.333.042-.483.125l-.67.37.141-.862c.051-.313-.05-.633-.271-.859l-.643-.657z"></path></svg>