<!-- icon666.com - MILLIONS vector ICONS FREE --><svg fill="#FFFFFF" xmlns="http://www.w3.org/2000/svg" viewBox="0 0 64 64"><title>Clipboard</title><g id="Clipboard"><path d="M57.39,51.73,47.76,36a4.12,4.12,0,0,0-3.51-2c-.36,0-.25,2.38-.25-22a4,4,0,0,0-4-4H31.82A3,3,0,0,0,29,6H21a3,3,0,0,0-2.82,2H10a4,4,0,0,0-4,4V50a4,4,0,0,0,4,4H30a4.12,4.12,0,0,0,4.11,4H53.88A4.12,4.12,0,0,0,57.39,51.73ZM42,12c0,23-.1,22.44,0,22.39-1.45.69-1.94,1.87-3,3.6V12a1,1,0,0,0-1-1H32V10h8A2,2,0,0,1,42,12ZM33.5,47H13V13c6.14,0,5-.2,5.46.58a2.92,2.92,0,0,0,1.83,1.32c.65.17,8.83.13,9.26,0A3,3,0,0,0,31.83,13H37V41.27ZM21,8h8a1,1,0,0,1,1,1v3a1,1,0,0,1-1,1H21a1,1,0,0,1-1-1V9A1,1,0,0,1,21,8ZM8,50V12a2,2,0,0,1,2-2h8v1H12a1,1,0,0,0-1,1V48a1,1,0,0,0,1,1H32.27L30.6,51.75c-.23.37,1.47.25-20.6.25A2,2,0,0,1,8,50Zm47.37,5.38c-.86.87.08.62-21.25.62a2.11,2.11,0,0,1-2-2.74c.1-.39,9.89-16.36,10.09-16.57A2.11,2.11,0,0,1,43.75,36a2.32,2.32,0,0,1,2.31,1C56.53,54.14,56,53,56,53.88A2.09,2.09,0,0,1,55.37,55.38Z"></path><path d="M43,42v6a1,1,0,0,0,2,0V42A1,1,0,0,0,43,42Z"></path><path d="M44,51a1,1,0,0,0,0,2A1,1,0,0,0,44,51Z"></path><path d="M21.29,18.29,18,21.59l-1.29-1.3a1,1,0,0,0-1.42,1.42c3.29,3.28,2,3.4,7.42-2A1,1,0,0,0,21.29,18.29Z"></path><path d="M21.29,27.29,18,30.59l-1.29-1.3a1,1,0,0,0-1.42,1.42c3.29,3.28,2,3.4,7.42-2A1,1,0,0,0,21.29,27.29Z"></path><path d="M21.29,36.29,18,39.59l-1.29-1.3a1,1,0,0,0-1.42,1.42c3.29,3.28,2,3.4,7.42-2A1,1,0,0,0,21.29,36.29Z"></path><path d="M25,22h9a1,1,0,0,0,0-2H25A1,1,0,0,0,25,22Z"></path><path d="M34,29H25a1,1,0,0,0,0,2h9A1,1,0,0,0,34,29Z"></path><path d="M34,38H25a1,1,0,0,0,0,2h9A1,1,0,0,0,34,38Z"></path></g></svg>