<svg fill="#FFFFFF" viewBox="1 -42 511.999 511" xmlns="http://www.w3.org/2000/svg"><path d="m506.269531 18.789062c-6.78125-10.96875-18.917969-18.289062-32.730469-18.289062h-435.078124c-13.8125 0-25.949219 7.320312-32.730469 18.289062-3.632813 5.867188-5.730469 12.78125-5.730469 20.175782v107.292968c0 .378907.0117188.75.0351562 1.121094 0 .039063.0039063.078125.0039063.117188.6406255 9.746094 8.7734375 17.484375 18.6835935 17.484375h12.109375v215.507812c-13.738281 1.972657-24.332031 13.820313-24.332031 28.097657v9.109374c0 5.238282 4.261719 9.5 9.5 9.5h71.628906c5.234375 0 9.5-4.261718 9.5-9.5v-9.109374c0-14.277344-10.59375-26.125-24.332031-28.097657v-215.507812h15.832031v128.019531c0 4.144531 3.359375 7.5 7.5 7.5h47.742188c4.140625 0 7.5-3.355469 7.5-7.5 0-4.140625-3.359375-7.5-7.5-7.5h-40.242188v-172.109375h304.742188v113.539063h-51.070313c-4.144531 0-7.5 3.359374-7.5 7.5v51.070312h-175.929687c-4.144532 0-7.5 3.359375-7.5 7.5 0 4.144531 3.355468 7.5 7.5 7.5 194.757812 0 185.464844 1.082031 188.730468-2.195312 60.746094-60.746094 60.734376-58.761719 60.769532-63.875v-69.453126h15.832031v215.507813c-13.738281 1.976563-24.332031 13.824219-24.332031 28.097656v9.113281c0 5.238282 4.261718 9.5 9.5 9.5h71.628906c5.238281 0 9.5-4.261718 9.5-9.5v-9.113281c0-14.273437-10.59375-26.121093-24.332031-28.097656v-215.503906h12.109375c10.316406 0 18.722656-8.390625 18.722656-18.722657v-107.292968c0-7.394532-2.097656-14.308594-5.730469-20.175782zm-424.140625 389.796876v3.609374h-60.628906v-3.609374c0-7.382813 6.007812-13.390626 13.386719-13.390626h33.851562c7.382813.003907 13.390625 6.007813 13.390625 13.390626zm-24.332031-28.386719h-11.964844v-215.21875h11.964844zm45.832031-281.808594v-27.441406c0-4.144531-3.355468-7.5-7.5-7.5-4.140625 0-7.5 3.355469-7.5 7.5v79.027343h-69.910156c-2.050781 0-3.71875-1.667968-3.71875-3.71875v-107.289062c0-4.496094 1.269531-8.695312 3.46875-12.269531 4.132812-6.710938 11.550781-11.199219 19.996094-11.199219h50.164062v25.445312c0 4.144532 3.359375 7.5 7.5 7.5 4.144532 0 7.5-3.355468 7.5-7.5v-25.445312h304.742188v25.445312c0 4.144532 3.355468 7.5 7.5 7.5 4.140625 0 7.5-3.355468 7.5-7.5v-25.441406h50.164062c8.445313 0 15.863282 4.484375 19.996094 11.195313 2.199219 3.574219 3.46875 7.773437 3.46875 12.269531v107.289062c0 2.050782-1.667969 3.71875-3.71875 3.71875h-69.910156v-79.027343c0-4.144531-3.359375-7.5-7.5-7.5-4.144532 0-7.5 3.355469-7.5 7.5v27.445312h-304.742188zm261.171875 143.542969h32.960938l-32.960938 32.960937zm125.699219 166.652344v3.609374h-60.628906v-3.609374c0-7.382813 6.007812-13.390626 13.390625-13.390626h33.851562c7.378907.003907 13.386719 6.007813 13.386719 13.390626zm-24.332031-28.386719h-11.964844v-215.21875h11.964844zm0 0"></path><path d="m147.546875 34.753906c-11.683594 0-21.191406 9.507813-21.191406 21.191406 0 11.6875 9.507812 21.195313 21.191406 21.195313 11.6875 0 21.195313-9.507813 21.195313-21.195313 0-11.683593-9.507813-21.191406-21.195313-21.191406zm0 27.386719c-3.414063 0-6.191406-2.777344-6.191406-6.191406 0-3.417969 2.777343-6.195313 6.191406-6.195313 3.417969 0 6.195313 2.777344 6.195313 6.195313 0 3.414062-2.777344 6.191406-6.195313 6.191406zm0 0"></path><path d="m229.5 48.449219h-38.5c-4.140625 0-7.5 3.355469-7.5 7.5 0 4.140625 3.359375 7.5 7.5 7.5h38.5c4.140625 0 7.5-3.359375 7.5-7.5 0-4.144531-3.359375-7.5-7.5-7.5zm0 0"></path><path d="m224.046875 142.496094h-43.757813c-4.144531 0-7.5 3.355468-7.5 7.5v90.4375c0 4.140625 3.355469 7.5 7.5 7.5h110c4.140626 0 7.5-3.359375 7.5-7.5v-46.726563c0-4.140625-3.359374-7.5-7.5-7.5h-11.546874c-1.960938 0-3.847657.769531-5.25 2.144531l-15.097657 14.796876c-2.960937 2.898437-3.007812 7.644531-.109375 10.605468 2.898438 2.957032 7.648438 3.003906 10.605469.105469l12.914063-12.652344h.984374v31.726563h-51.242187v-31.726563h17.03125c4.140625 0 7.5-3.359375 7.5-7.5s-3.359375-7.5-7.5-7.5h-17.03125v-36.210937c0-4.144532-3.359375-7.5-7.5-7.5zm-7.5 90.433594h-28.757813v-75.4375h28.757813v28.714843h-17.648437c-4.140626 0-7.5 3.355469-7.5 7.5 0 4.140625 3.359374 7.5 7.5 7.5h17.648437zm0 0"></path><path d="m316.582031 247.886719c-4.140625 0-7.5 3.359375-7.5 7.5 0 4.144531 3.359375 7.5 7.5 7.5h15.128907c4.144531 0 7.5-3.355469 7.5-7.5 0-4.140625-3.355469-7.5-7.5-7.5h-.0625v-96.878907h.0625c4.144531 0 7.5-3.359374 7.5-7.5 0-4.140624-3.355469-7.5-7.5-7.5h-15.128907c-4.140625 0-7.5 3.359376-7.5 7.5 0 4.140626 3.359375 7.5 7.5 7.5h.066407v96.878907zm0 0"></path></svg>