<!-- icon666.com - MILLIONS vector ICONS FREE --><svg version="1.1" id="Layer_1" xmlns="http://www.w3.org/2000/svg" xmlns:xlink="http://www.w3.org/1999/xlink" x="0px" y="0px" viewBox="0 0 512.491 512.491" style="enable-background:new 0 0 512.491 512.491;" xml:space="preserve"><g><rect x="280.316" y="56.239" style="fill:#FFFFFF;" width="16.008" height="16.008"></rect><rect x="248.211" y="56.239" style="fill:#FFFFFF;" width="16.008" height="16.008"></rect><rect x="216.308" y="56.239" style="fill:#FFFFFF;" width="16.008" height="16.008"></rect><rect x="216.308" y="440.245" style="fill:#FFFFFF;" width="16.008" height="16.008"></rect><rect x="248.211" y="440.245" style="fill:#FFFFFF;" width="16.008" height="16.008"></rect><rect x="280.316" y="440.245" style="fill:#FFFFFF;" width="16.008" height="16.008"></rect><path style="fill:#FFFFFF;" d="M510.611,251.448c-64.799-88.799-157.594-139.193-254.408-139.193l0,0l0,0l0,0 c-96.792,0-189.61,50.394-254.408,139.193c-2.393,3.206-2.393,6.39,0,9.596c64.799,88.799,157.594,139.193,254.408,139.193l0,0l0,0 l0,0c96.792,0,189.61-50.394,254.408-139.193C513.118,257.837,513.118,254.654,510.611,251.448z M256.316,384.251L256.316,384.251 c-70.398,0-127.994-57.596-127.994-127.994s57.596-127.994,127.994-127.994l0,0c70.398,0,127.994,57.596,127.994,127.994 S326.714,384.251,256.316,384.251z M17.916,256.257c40.798-53.6,92.005-92.005,147.998-112.009 c-32.806,26.394-53.6,66.402-53.6,112.009c0,44.795,20.794,85.593,53.6,112.009C109.898,348.239,58.714,309.857,17.916,256.257z M346.718,368.243c32.806-26.394,53.6-66.402,53.6-112.009c0-44.795-20.794-85.593-53.6-112.009 c55.993,20.004,107.2,58.409,147.998,112.009C453.918,309.857,402.711,348.239,346.718,368.243z"></path><path style="fill:#FFFFFF;" d="M256.316,496.26v16.008c116.005,0,217.606-78.391,247.996-189.61l-16.008-4.809 C460.217,422.656,365.119,496.26,256.316,496.26z"></path><path style="fill:#FFFFFF;" d="M256.316,16.253V0.223C140.311,0.223,38.71,78.636,8.32,189.855l16.008,4.809 C52.302,89.857,147.513,16.253,256.316,16.253z"></path><path style="fill:#FFFFFF;" d="M267.515,221.058c3.206,3.206,4.809,7.202,4.809,11.199h16.008c0-8.805-3.206-16.798-9.596-22.397 c-3.996-3.996-8.805-7.202-14.405-7.993v-17.611h-16.008v16.798c-5.599,1.603-10.408,3.996-14.405,7.993 c-6.39,6.39-9.596,14.405-9.596,23.21c0,8.805,3.206,16.798,9.596,22.397c6.39,6.39,14.405,9.596,22.397,9.596 c3.996,0,7.993,1.603,11.199,4.809c3.206,3.206,4.809,7.202,4.809,11.199s-1.603,7.993-4.809,11.199 c-6.39,6.39-16.798,6.39-22.397,0c-3.206-3.206-4.809-7.202-4.809-11.199h-16.008c0,8.805,3.206,16.798,9.596,22.397 c3.996,3.996,8.805,7.202,14.405,7.993v17.611h16.008V311.46c5.599-1.603,10.408-3.996,14.405-7.993 c6.39-6.39,9.596-14.405,9.596-22.397c0-7.993-3.206-16.798-9.596-22.397c-5.599-7.202-13.592-10.408-22.397-10.408 c-3.996,0-7.993-1.603-11.199-4.809c-3.206-3.206-4.809-7.202-4.809-11.199s1.603-7.993,4.809-11.199 C250.717,214.646,261.915,214.646,267.515,221.058z"></path><path style="fill:#FFFFFF;" d="M168.307,256.257H152.3c0,57.596,46.398,103.994,103.994,103.994h7.993v-16.008h-7.993 C207.503,344.243,168.307,305.048,168.307,256.257z"></path><path style="fill:#FFFFFF;" d="M256.316,152.24h-7.993v16.008h7.993c48.791,0,88.009,39.195,88.009,88.009h16.008 C360.31,198.638,313.912,152.24,256.316,152.24z"></path></g></svg>