<!-- icon666.com - MILLIONS vector ICONS FREE --><svg fill="#FFFFFF" viewBox="0 -75 498.00735 498" xmlns="http://www.w3.org/2000/svg"><path d="m467.277344 183.519531c-.632813-.605469-1.394532-1.058593-2.222656-1.335937l-31.9375-47.691406c-7.691407-11.59375-20.699219-18.539063-34.613282-18.480469h-45.5v-14.417969c.023438-1.527344-.589844-3-1.691406-4.058594s-2.59375-1.609375-4.121094-1.523437h-20.1875v-45.148438c-.019531-1.578125-.667968-3.089843-1.804687-4.1875-1.136719-1.097656-2.667969-1.699219-4.25-1.664062h-16.945313v-9h12.957032c3.351562-.066407 6.035156-2.800781 6.042968-6.152344v-24.265625c0-3.316406-2.730468-5.5820312-6.042968-5.5820312h-64.429688c-1.496094-.0742188-2.957031.4882812-4.011719 1.5546872-1.054687 1.066406-1.605469 2.527344-1.515625 4.027344v24.265625c0 3.3125 2.210938 6.152344 5.527344 6.152344h13.472656v9h-71v-9h13.246094c1.582031-.042969 3.082031-.722657 4.160156-1.875 1.082032-1.15625 1.65625-2.699219 1.59375-4.277344v-24.265625c.039063-1.523438-.558594-2.992188-1.652344-4.054688-1.09375-1.058593-2.582031-1.6132808-4.101562-1.5273432h-64.429688c-1.527343-.0859376-3.019531.4648432-4.125 1.5234372-1.101562 1.058594-1.714843 2.527344-1.691406 4.058594v24.265625c-.046875 1.585937.539063 3.128906 1.632813 4.28125 1.089843 1.15625 2.597656 1.828125 4.183593 1.871094h13.183594v9h-71v-9h13.539063c3.433593-.035157 6.257812-2.722657 6.460937-6.152344v-24.265625c0-3.316406-3.148437-5.5820312-6.460937-5.5820312h-64.429688c-3.308593 0-6.109375 2.2656252-6.109375 5.5820312v24.265625c.039063 3.363281 2.742188 6.089844 6.109375 6.152344h12.890625v9h-16.882812c-1.585938-.035157-3.125.558593-4.273438 1.65625-1.148437 1.097656-1.8125 2.609375-1.84375 4.195312v45.148438h-19.210937c-1.523438-.085938-3.015625.46875-4.113281 1.527343-1.101563 1.058594-1.7070318 2.527344-1.67578175 4.054688v196.191406c-.11718725 3.316406 2.47265575 6.101563 5.78906275 6.226563h24.34375c2.914062 25.441406 24.449219 44.648437 50.054687 44.648437 25.605469 0 47.140625-19.207031 50.054688-44.648437h236.214844c2.910156 25.441406 24.445312 44.652343 50.054687 44.652343 25.605469 0 47.140625-19.210937 50.050781-44.652343h25.648438c3.316406-.125 5.90625-2.910157 5.789062-6.226563v-66.792968c.015625-11.25-4.527344-22.03125-12.59375-29.878907zm-68.773438-55.507812c9.910156-.019531 19.164063 4.949219 24.625 13.21875l27.261719 40.78125h-97.386719v-54zm-139.5-116h52v12h-52zm19 24h14v9h-14zm-128-24h52v12h-52zm19 24h14v9h-14zm-128-24h53v12h-53zm19 24h14v9h-14zm-23 21h278v154h-278zm-25 51h13v108.96875c.054688 3.34375 2.777344 6.027343 6.117188 6.03125h289.828125c3.332031-.007813 6.03125-2.699219 6.054687-6.03125v-108.96875h14v184h-210.824218c-3.152344-25.207031-24.582032-44.128907-49.988282-44.128907s-46.835937 18.921876-49.988281 44.128907h-18.199219zm68.1875 228.421875c-21.203125 0-38.390625-17.1875-38.390625-38.390625s17.1875-38.390625 38.390625-38.390625 38.390625 17.1875 38.390625 38.390625c-.023437 21.191406-17.199219 38.367187-38.390625 38.390625zm336.324219 0c-21.203125 0-38.394531-17.1875-38.394531-38.390625s17.1875-38.390625 38.390625-38.390625 38.390625 17.1875 38.390625 38.390625c-.023438 21.191406-17.195313 38.367187-38.386719 38.390625zm69.488281-44.421875h-19.5c-3.148437-25.210938-24.578125-44.136719-49.988281-44.136719s-46.84375 18.925781-49.988281 44.136719h-13.523438v-98h107.6875l16.390625 15.820312c5.722657 5.550781 8.941407 13.191407 8.921875 21.160157zm0 0"></path><path d="m255.859375 111.964844-6.855469-.757813v-15.933593c.042969-1.929688-.859375-3.757813-2.417968-4.894532-1.5625-1.136718-3.578126-1.4375-5.402344-.804687l-52.617188 18.4375h-26.609375c-5.738281 0-9.953125 4.742187-9.953125 10.480469v26.691406c-.003906 3.636718 1.894532 7.007812 5 8.890625v25.378906c-.078125 1.5.484375 2.960937 1.546875 4.023437s2.527344 1.621094 4.027344 1.535157h15.300781c2.621094.09375 4.976563-1.578125 5.753906-4.082031l7.300782-24.621094 50.304687 17.703125c.636719.234375 1.308594.355469 1.984375.367187 1.210938.003906 2.386719-.378906 3.363282-1.09375 1.554687-1.132812 2.460937-2.953125 2.417968-4.878906v-17.113281l6.855469-.757813c7.503906-.820312 13.175781-7.171875 13.144531-14.722656v-9.128906c.03125-7.546875-5.640625-13.902344-13.144531-14.71875zm-91.855469 8.046875h20v24h-20zm9.390625 53h-4.390625v-17h9.660156zm22.609375-27.675781v-27l41-14.601563v56.203125zm61-9.523438c.027344 1.425781-1.035156 2.640625-2.453125 2.800781l-5.546875.613281v-15.949218l5.546875.613281c1.414063.160156 2.476563 1.371094 2.453125 2.796875zm0 0"></path><path d="m297.003906 128.011719h-15c-3.3125 0-6 2.6875-6 6 0 3.316406 2.6875 6 6 6h15c3.3125 0 6-2.683594 6-6 0-3.3125-2.6875-6-6-6zm0 0"></path><path d="m279.714844 118.140625c1 0 1.988281-.253906 2.867187-.734375l8.6875-4.738281c2.878907-1.597657 3.929688-5.222657 2.351563-8.117188s-5.191406-3.972656-8.097656-2.417969l-8.6875 4.738282c-2.410157 1.3125-3.621094 4.09375-2.941407 6.753906.679688 2.65625 3.074219 4.515625 5.820313 4.515625zm0 0"></path><path d="m291.265625 151.636719-8.683594-4.734375c-1.886719-1.054688-4.191406-1.019532-6.042969.101562-1.847656 1.117188-2.953124 3.144532-2.890624 5.300782.0625 2.160156 1.277343 4.121093 3.1875 5.132812l8.6875 4.734375c1.882812 1.058594 4.191406 1.019531 6.039062-.097656 1.847656-1.121094 2.953125-3.144531 2.890625-5.304688-.058594-2.160156-1.277344-4.121093-3.1875-5.132812zm0 0"></path><path d="m53.003906 115.011719h20c3.3125 0 6-2.683594 6-6 0-3.3125-2.6875-6-6-6h-20c-3.3125 0-6 2.6875-6 6 0 3.316406 2.6875 6 6 6zm0 0"></path><path d="m130.003906 124.011719h-77c-3.3125 0-6 2.6875-6 6 0 3.316406 2.6875 6 6 6h77c3.3125 0 6-2.683594 6-6 0-3.3125-2.6875-6-6-6zm0 0"></path><path d="m130.003906 145.011719h-77c-3.3125 0-6 2.6875-6 6 0 3.316406 2.6875 6 6 6h77c3.3125 0 6-2.683594 6-6 0-3.3125-2.6875-6-6-6zm0 0"></path><path d="m130.003906 166.011719h-77c-3.3125 0-6 2.6875-6 6 0 3.316406 2.6875 6 6 6h77c3.3125 0 6-2.683594 6-6 0-3.3125-2.6875-6-6-6zm0 0"></path></svg>