<!-- icon666.com - MILLIONS vector ICONS FREE --><svg fill="#FFFFFF" id="Capa_1" enable-background="new 0 0 366.681 366.681" viewBox="0 0 366.681 366.681" xmlns="http://www.w3.org/2000/svg"><g><g><g><path d="m320.8 17.801-45.881 29.364v50.286h-45.881v-50.286l-45.881-29.364-45.881 29.364v50.286h-45.514v-50.286l-45.881-29.364-45.881 29.364v301.715h91.762v-59.462h45.881v59.462h91.395v-59.462h46.248v59.462h91.395v-301.715zm-91.395 127.366h45.881v96.167h-45.881zm45.881-32.301v16.517h-45.881v-16.517c0 .001 45.881.001 45.881 0zm-183.524 32.301h45.881v96.167h-45.881zm45.881-32.301v16.517h-45.881v-16.517c0 .001 45.881.001 45.881 0zm-61.297 220.23h-60.196v-277.489l30.098-19.454 30.098 19.454zm15.416-59.462v-16.884h45.881v16.517h-45.881zm121.86 59.462h-60.196v-277.489l30.098-19.087 30.098 19.454zm15.783-59.462v-16.884h45.881v16.517h-45.881zm121.493 59.462h-60.196v-51.754-32.3-111.582-32.3-49.553l30.098-19.454 30.098 19.454z"></path><path d="m313.092 82.401v11.746c0 4.405 3.671 7.708 7.708 7.708 4.038 0 7.708-3.67 7.708-7.708v-11.746c0-4.405-3.67-7.708-7.708-7.708-4.037 0-7.708 3.304-7.708 7.708z"></path><path d="m46.248 74.693c-4.405 0-7.708 3.67-7.708 7.708v11.746c0 4.405 3.67 7.708 7.708 7.708s7.708-3.67 7.708-7.708v-11.746c0-4.404-3.67-7.708-7.708-7.708z"></path><path d="m175.816 82.401v11.746c0 4.405 3.67 7.708 7.708 7.708s7.708-3.67 7.708-7.708v-11.746c0-4.405-3.67-7.708-7.708-7.708-4.037 0-7.708 3.304-7.708 7.708z"></path><path d="m320.8 261.522c-4.405 0-7.708 3.671-7.708 7.708v11.746c0 4.405 3.67 7.708 7.708 7.708s7.708-3.67 7.708-7.708v-11.746c.367-4.039-3.303-7.708-7.708-7.708z"></path><path d="m46.248 261.522c-4.405 0-7.708 3.671-7.708 7.708v11.746c0 4.405 3.67 7.708 7.708 7.708s7.708-3.67 7.708-7.708v-11.746c0-4.039-3.67-7.708-7.708-7.708z"></path><path d="m183.524 261.522c-4.405 0-7.708 3.671-7.708 7.708v11.746c0 4.405 3.67 7.708 7.708 7.708s7.708-3.67 7.708-7.708v-11.746c0-4.039-3.303-7.708-7.708-7.708z"></path></g></g></g></svg>