<!-- icon666.com - MILLIONS vector ICONS FREE --><svg fill="#FFFFFF" id="Layer_3" viewBox="0 0 64 64" xmlns="http://www.w3.org/2000/svg" data-name="Layer 3"><path d="m62 11h-25v-9a1 1 0 0 0 -1-1h-34a1 1 0 0 0 -1 1v60a1 1 0 0 0 1 1h60a1 1 0 0 0 1-1v-50a1 1 0 0 0 -1-1zm-27 30h-16v-34h16zm-32-34h10v4h-10zm0 10h10v4h-10zm0 10h10v4h-10zm0 10h10v4h-10zm0 6h11a1 1 0 0 0 1-1v-6a1 1 0 0 0 -1-1h-11v-2h11a1 1 0 0 0 1-1v-6a1 1 0 0 0 -1-1h-11v-2h11a1 1 0 0 0 1-1v-6a1 1 0 0 0 -1-1h-11v-2h11a1 1 0 0 0 1-1v-6a1 1 0 0 0 -1-1h-11v-2h32v2h-17a1 1 0 0 0 -1 1v36a1 1 0 0 0 1 1h17v18h-3v-11a1 1 0 0 0 -1-1h-10a1 1 0 0 0 -1 1v11h-2v-11a1 1 0 0 0 -1-1h-10a1 1 0 0 0 -1 1v11h-3zm27 18h-8v-10h8zm-14 0h-8v-10h8zm38-9v9h-4v-9zm-13-2v-19h16v19zm7 2v9h-4v-9zm13 9h-5v-9h2a1 1 0 0 0 1-1v-21a1 1 0 0 0 -1-1h-18a1 1 0 0 0 -1 1v21a1 1 0 0 0 1 1h2v9h-5v-48h24z"></path><path d="m27 9c-2.89 0-6 .938-6 3v12c0 2.062 3.11 3 6 3s6-.938 6-3v-12c0-2.062-3.11-3-6-3zm0 2c2.347 0 3.717.673 3.975 1-.258.327-1.628 1-3.975 1s-3.717-.673-3.975-1c.258-.327 1.628-1 3.975-1zm0 14c-2.484 0-3.875-.754-4-1v-9.694a10.864 10.864 0 0 0 4 .694 10.858 10.858 0 0 0 4-.7l.007 9.641c-.132.305-1.523 1.059-4.007 1.059z"></path><path d="m23.394 19h7.211v2h-7.211z" transform="matrix(.555 -.832 .832 .555 -4.618 31.371)"></path><path d="m21 29h7v2h-7z"></path><path d="m23 33h7v2h-7z"></path><path d="m26 37h7v2h-7z"></path><path d="m53 40h-8a1 1 0 0 0 -1 1v2a5 5 0 0 0 10 0v-2a1 1 0 0 0 -1-1zm-1 3a3 3 0 0 1 -6 0v-1h6z"></path><path d="m45 35h2v3h-2z"></path><path d="m48 33h2v3h-2z"></path><path d="m51 35h2v3h-2z"></path><path d="m40 27h18a1 1 0 0 0 1-1v-10a1 1 0 0 0 -1-1h-18a1 1 0 0 0 -1 1v10a1 1 0 0 0 1 1zm1-10h16v8h-16z"></path></svg>