<!-- icon666.com - MILLIONS vector ICONS FREE --><svg fill="#FFFFFF" viewBox="-53 0 463 463.05449" xmlns="http://www.w3.org/2000/svg"><path d="m354.082031 142.632812-71.835937-43.539062-6.003906-91.609375c-.195313-2.945313-1.992188-5.539063-4.675782-6.757813-2.683594-1.234374-5.820312-.875-8.164062.921876l-76.125 58.164062c-11.078125 8.257812-25.804688 8.851562-37.511719 1.539062l-2.742187-1.71875c-19.855469-12.421874-45.910157-9.054687-61.960938 7.984376l-38.792969 41.167968-2.09375-3.621094c-6.523437-11.296874-21.015625-15.179687-32.308593-8.65625-5.476563 3.15625-9.390626 8.257813-11.027344 14.367188-1.632813 6.101562-.792969 12.476562 2.363281 17.945312l143.367187 248.316407v.003906c.003907 0 .003907 0 .003907.003906l42.765625 74.074219c3.160156 5.46875 8.257812 9.382812 14.363281 11.023438 2.035156.546874 4.105469.8125 6.160156.8125 4.097657 0 8.148438-1.078126 11.792969-3.179688 5.46875-3.164062 9.382812-8.257812 11.019531-14.367188 1.632813-6.101562.792969-12.476562-2.363281-17.945312l-17.761719-30.769531s0-.003907-.003906-.003907c0-.003906 0-.003906-.003906-.003906l-76.328125-132.207031 33.476562-37.757813c10.910156-12.304687 29.480469-14.765624 43.203125-5.679687 17.09375 11.28125 39.679688 10.742187 56.277344-1.398437l85.546875-63.851563c2.132812-1.59375 3.332031-4.140625 3.207031-6.796875-.128906-2.65625-1.570312-5.078125-3.84375-6.460938zm-257.375-64.046874c10.847657-11.5 28.445313-13.765626 41.824219-5.390626l2.742188 1.71875h.007812c17.355469 10.84375 39.15625 9.960938 55.632812-2.328124l64.335938-49.15625 5.023438 76.628906-39.210938 30.386718c-11.074219 8.25-25.800781 8.84375-37.503906 1.539063l-2.75-1.71875c-19.851563-12.429687-45.90625-9.054687-61.957032 7.984375l-37.605468 39.90625-12.796875-22.164062 21.429687-21.429688c3.125-3.125 3.125-8.1875 0-11.3125s-8.1875-3.125-11.3125 0l-18.398437 18.398438-10.976563-19.007813zm-80.410156 36.429687c.527344-1.976563 1.792969-3.625 3.5625-4.648437 1.207031-.695313 2.519531-1.023438 3.820313-1.023438 2.648437 0 5.222656 1.367188 6.636718 3.820312l47.429688 82.144532c.019531.046875.054687.085937.074218.128906l91.867188 159.117188-13.257812 7.65625-139.371094-241.390626c-1.019532-1.773437-1.292969-3.835937-.761719-5.804687zm178.394531 282.84375-13.257812 7.65625-17.003906-29.445313 13.257812-7.65625zm22.527344 43.507813c-.527344 1.976562-1.792969 3.625-3.5625 4.648437-.003906 0-.003906 0-.007812 0-1.777344 1.03125-3.832032 1.296875-5.804688.765625-1.972656-.523438-3.625-1.789062-4.644531-3.5625l-13.765625-23.84375 13.257812-7.65625 13.765625 23.84375c1.019531 1.773438 1.292969 3.835938.761719 5.804688zm42.445312-234.492188c-11.164062 8.15625-26.414062 8.523438-37.953124.90625-20.324219-13.40625-47.828126-9.796875-63.988282 8.429688l-29.378906 33.132812-32.75-56.726562 40.902344-43.398438c10.832031-11.492188 28.4375-13.78125 41.824218-5.390625l2.75 1.71875c17.355469 10.859375 39.164063 9.960937 55.679688-2.367187l38.339844-29.714844 22.570312 13.679687-45.003906 37.503907c-3.394531 2.828124-3.851562 7.875-1.023438 11.273437 1.582032 1.898437 3.855469 2.875 6.148438 2.875 1.804688 0 3.621094-.609375 5.117188-1.851563l49.234374-41.027343 23.503907 14.246093zm0 0"></path></svg>