<!-- icon666.com - MILLIONS vector ICONS FREE --><svg fill="#FFFFFF" viewBox="-42 0 510 510.66667" xmlns="http://www.w3.org/2000/svg"><path d="m203 298.667969h21.332031v32h-21.332031zm0 0"></path><path d="m203 117.332031h21.332031v32h-21.332031zm0 0"></path><path d="m245.667969 309.332031h-64c-23.46875 0-42.667969-19.199219-42.667969-42.664062v-10.667969h21.332031v10.667969c0 11.730469 9.601563 21.332031 21.335938 21.332031h64c11.730469 0 21.332031-9.601562 21.332031-21.332031v-10.667969c0-11.734375-9.601562-21.332031-21.332031-21.332031h-64c-23.46875 0-42.667969-19.203125-42.667969-42.667969v-10.667969c0-23.464843 19.199219-42.664062 42.667969-42.664062h64c23.464843 0 42.664062 19.199219 42.664062 42.664062v10.667969h-21.332031v-10.667969c0-11.730469-9.601562-21.332031-21.332031-21.332031h-64c-11.734375 0-21.335938 9.601562-21.335938 21.332031v10.667969c0 11.734375 9.601563 21.332031 21.335938 21.332031h64c23.464843 0 42.664062 19.203125 42.664062 42.667969v10.667969c0 23.464843-19.199219 42.664062-42.664062 42.664062zm0 0"></path><path d="m213.667969 510.667969-146.132813-141.867188c-42.667968-40.132812-67.203125-96.800781-67.203125-155.46875 0-117.597656 95.734375-213.332031 213.335938-213.332031 117.597656 0 213.332031 95.734375 213.332031 213.332031 0 58.667969-24.535156 115.335938-67.332031 155.601563zm0-489.335938c-105.867188 0-192 86.132813-192 192 0 53.601563 21.464843 103.335938 60.664062 140l131.335938 127.601563 131.199219-127.46875c39.332031-36.796875 60.800781-86.53125 60.800781-140.132813 0-105.867187-86.132813-192-192-192zm0 0"></path></svg>